<?xml version="1.0" encoding="utf-8"?>
<!-- Generator: Adobe Illustrator 18.1.1, SVG Export Plug-In . SVG Version: 6.00 Build 0)  -->
<svg version="1.1" id="github" xmlns="http://www.w3.org/2000/svg" xmlns:xlink="http://www.w3.org/1999/xlink" x="0px" y="0px"
	 viewBox="0 0 200 200" enable-background="new 0 0 200 200" xml:space="preserve">
<circle fill="#000222" cx="100" cy="100" r="96"/>
<path fill="#F7F7F7" d="M100,51c-27.1,0-49,21.9-49,49s21.9,49,49,49s49-21.9,49-49S127.1,51,100,51z M129.1,129.1
	c-3.8,3.8-8.2,6.8-13.1,8.8c-1.2,0.5-2.5,1-3.8,1.4V132c0-3.9-1.3-6.7-4-8.5c1.7-0.2,3.2-0.4,4.6-0.7c1.4-0.3,2.9-0.7,4.4-1.2
	s2.9-1.2,4.2-1.9c1.2-0.8,2.4-1.7,3.5-2.9s2.1-2.6,2.8-4.1c0.8-1.5,1.4-3.3,1.8-5.5s0.7-4.5,0.7-7c0-4.9-1.6-9.2-4.8-12.6
	c1.5-3.8,1.3-8-0.5-12.5l-1.2-0.1c-0.8-0.1-2.3,0.3-4.5,1.1c-2.2,0.8-4.6,2.1-7.2,3.9c-3.8-1.1-7.7-1.6-11.8-1.6
	c-4.1,0-8,0.5-11.8,1.6c-1.7-1.1-3.3-2.1-4.8-2.8c-1.5-0.8-2.7-1.3-3.6-1.5c-0.9-0.3-1.8-0.4-2.5-0.5c-0.8-0.1-1.3-0.1-1.5,0
	S75.6,75,75.5,75c-1.8,4.5-1.9,8.7-0.5,12.5c-3.2,3.5-4.8,7.7-4.8,12.6c0,2.6,0.2,4.9,0.7,7c0.4,2.1,1.1,3.9,1.8,5.5
	s1.7,2.9,2.8,4.1c1.1,1.2,2.3,2.2,3.5,2.9c1.2,0.8,2.6,1.4,4.2,1.9c1.5,0.5,3,1,4.4,1.2c1.4,0.3,2.9,0.5,4.6,0.7
	c-2.6,1.8-3.9,4.6-3.9,8.5v7.5c-1.4-0.4-2.9-0.9-4.3-1.5c-4.9-2.1-9.3-5-13.1-8.8c-3.8-3.8-6.8-8.2-8.8-13.1
	c-2.1-5.1-3.2-10.5-3.2-16s1.1-10.9,3.2-16c2.1-4.9,5-9.3,8.8-13.1s8.2-6.8,13.1-8.8c5.1-2.1,10.5-3.2,16-3.2s10.9,1.1,16,3.2
	c4.9,2.1,9.3,5,13.1,8.8s6.8,8.2,8.8,13.1c2.1,5.1,3.2,10.5,3.2,16s-1.1,10.9-3.2,16C135.8,120.9,132.9,125.3,129.1,129.1
	L129.1,129.1z"/>
</svg>
