<?xml version="1.0" encoding="utf-8"?>
<!-- Generator: Adobe Illustrator 18.1.1, SVG Export Plug-In . SVG Version: 6.00 Build 0)  -->
<svg version="1.1" id="twitter" xmlns="http://www.w3.org/2000/svg" xmlns:xlink="http://www.w3.org/1999/xlink" x="0px" y="0px"
	 viewBox="0 0 200 200" enable-background="new 0 0 200 200" xml:space="preserve">
<circle fill="#000222" cx="100" cy="100" r="96"/>
<g>
	<g>
		<path fill="#F7F7F7" d="M136.4,50H63.6c-7.4,0-13.4,6-13.4,13.4v72.8c0,7.4,6,13.4,13.4,13.4h72.8c7.4,0,13.4-6,13.4-13.4V63.4
			C149.8,56,143.8,50,136.4,50z M142,136.1c0,3.1-2.5,5.6-5.6,5.6H63.6c-3.1,0-5.6-2.5-5.6-5.6V63.4c0-3.1,2.5-5.6,5.6-5.6h72.8
			c3.1,0,5.6,2.5,5.6,5.6V136.1z"/>
	</g>
	<g>
		<path fill="#F7F7F7" d="M100.4,67.8c-18.3,0-33.2,14.9-33.2,33.2c0,18.3,14.9,33.2,33.2,33.2s33.2-14.9,33.2-33.2
			C133.6,82.7,118.7,67.8,100.4,67.8z M100.4,125.1c-13.3,0-24.1-10.8-24.1-24.1c0-13.3,10.8-24.1,24.1-24.1
			c13.3,0,24.1,10.8,24.1,24.1C124.5,114.3,113.7,125.1,100.4,125.1z"/>
	</g>
	<path fill-rule="evenodd" clip-rule="evenodd" fill="#F7F7F7" d="M135.5,69.6c0,3.1-2.5,5.6-5.6,5.6s-5.6-2.5-5.6-5.6
		c0-3.1,2.5-5.6,5.6-5.6S135.5,66.5,135.5,69.6z"/>
</g>
</svg>
