<?xml version="1.0" encoding="utf-8"?>
<!-- Generator: Adobe Illustrator 18.1.1, SVG Export Plug-In . SVG Version: 6.00 Build 0)  -->
<svg version="1.1" id="linkedin" xmlns="http://www.w3.org/2000/svg" xmlns:xlink="http://www.w3.org/1999/xlink" x="0px" y="0px"
	 viewBox="0 0 200 200" enable-background="new 0 0 200 200" xml:space="preserve">
<circle fill="#000222" cx="100" cy="100" r="96"/>
<path fill="#F7F7F7" d="M132.5,51H67.5C58.4,51,51,58.4,51,67.5v65.1c0,9.1,7.4,16.5,16.5,16.5h65.1c9.1,0,16.5-7.4,16.5-16.5V67.5
	C149,58.4,141.6,51,132.5,51z M87.8,130.6H75.5V87.8h12.2V130.6z M81.6,81.6c-3.4,0-6.1-2.7-6.1-6.1s2.7-6.1,6.1-6.1
	s6.1,2.7,6.1,6.1S85,81.6,81.6,81.6z M130.6,130.6h-12.2v-24.5c0-3.4-2.7-6.1-6.1-6.1s-6.1,2.7-6.1,6.1v24.5H93.9V87.8h12.2v7.6
	c2.5-3.5,6.4-7.6,10.7-7.6c7.6,0,13.8,6.9,13.8,15.3L130.6,130.6L130.6,130.6z"/>
</svg>
