<?xml version="1.0" encoding="utf-8"?>
<!-- Generator: Adobe Illustrator 18.1.1, SVG Export Plug-In . SVG Version: 6.00 Build 0)  -->
<svg version="1.1" id="twitter" xmlns="http://www.w3.org/2000/svg" xmlns:xlink="http://www.w3.org/1999/xlink" x="0px" y="0px"
	 viewBox="0 0 200 200" enable-background="new 0 0 200 200" xml:space="preserve">
<circle fill="#000222" cx="100" cy="100" r="96"/>
<path fill="#F7F7F7" d="M149,69.4c-3.6,1.6-7.5,2.7-11.5,3.2c4.1-2.5,7.3-6.5,8.8-11.2c-3.9,2.3-8.2,4-12.8,4.9
	c-3.7-3.9-8.9-6.4-14.7-6.4c-11.1,0-20.1,9.1-20.1,20.2c0,1.6,0.2,3.1,0.5,4.6c-16.7-0.8-31.5-8.9-41.4-21.1
	c-1.7,3-2.7,6.5-2.7,10.2c0,7,3.6,13.2,8.9,16.8c-3.3-0.1-6.4-1-9.1-2.5c0,0.1,0,0.2,0,0.3c0,9.8,6.9,18,16.1,19.8
	c-1.7,0.5-3.5,0.7-5.3,0.7c-1.3,0-2.6-0.1-3.8-0.4c2.6,8,10,13.9,18.8,14c-6.9,5.4-15.6,8.7-25,8.7c-1.6,0-3.2-0.1-4.8-0.3
	c8.9,5.7,19.5,9.1,30.8,9.1c37,0,57.2-30.8,57.2-57.5c0-0.9,0-1.7-0.1-2.6C142.9,77,146.3,73.5,149,69.4z"/>
</svg>
